<?xml version="1.0"?>
<!-- Created by MetaPost 2.000 on 2018.01.13:0345 -->
<svg version="1.1" xmlns="http://www.w3.org/2000/svg" xmlns:xlink="http://www.w3.org/1999/xlink" width="204.500000" height="204.500000" viewBox="0 0 204.500000 204.500000">
<!-- Original BoundingBox: -102.250000 -102.250000 102.250000 102.250000 -->
  <path d="M96.000000 48.000000C96.000000 35.269608,90.942872 23.060621,81.941126 14.058874C72.939379 5.057128,60.730392 -0.000000,48.000000 -0.000000C35.269608 -0.000000,23.060621 5.057128,14.058874 14.058874C5.057128 23.060621,0.000000 35.269608,0.000000 48.000000C0.000000 60.730392,5.057128 72.939379,14.058874 81.941126C23.060621 90.942872,35.269608 96.000000,48.000000 96.000000C60.730392 96.000000,72.939379 90.942872,81.941126 81.941126C90.942872 72.939379,96.000000 60.730392,96.000000 48.000000Z" style="fill: rgb(100.000000%,100.000000%,100.000000%);stroke: none;"></path>
  <path d="M96.000000 48.000000C96.000000 35.269608,90.942872 23.060621,81.941126 14.058874C72.939379 5.057128,60.730392 -0.000000,48.000000 -0.000000C35.269608 -0.000000,23.060621 5.057128,14.058874 14.058874C5.057128 23.060621,0.000000 35.269608,0.000000 48.000000C0.000000 60.730392,5.057128 72.939379,14.058874 81.941126C23.060621 90.942872,35.269608 96.000000,48.000000 96.000000C60.730392 96.000000,72.939379 90.942872,81.941126 81.941126C90.942872 72.939379,96.000000 60.730392,96.000000 48.000000Z" style="stroke:rgb(0.000000%,0.000000%,0.000000%); stroke-width: 0.500000;stroke-linecap: round;stroke-linejoin: round;stroke-miterlimit: 10.000000;fill: none;"></path>
  <path d="M84.000000 48.000000C84.000000 38.452206,80.207154 29.295465,73.455844 22.544156C66.704535 15.792846,57.547794 12.000000,48.000000 12.000000C38.452206 12.000000,29.295465 15.792846,22.544156 22.544156C15.792846 29.295465,12.000000 38.452206,12.000000 48.000000C12.000000 57.547794,15.792846 66.704535,22.544156 73.455844C29.295465 80.207154,38.452206 84.000000,48.000000 84.000000C57.547794 84.000000,66.704535 80.207154,73.455844 73.455844C80.207154 66.704535,84.000000 57.547794,84.000000 48.000000Z" style="fill: rgb(70.000000%,80.000000%,90.000000%);stroke: none;"></path>
  <path d="M84.000000 48.000000C84.000000 38.452206,80.207154 29.295465,73.455844 22.544156C66.704535 15.792846,57.547794 12.000000,48.000000 12.000000C38.452206 12.000000,29.295465 15.792846,22.544156 22.544156C15.792846 29.295465,12.000000 38.452206,12.000000 48.000000C12.000000 57.547794,15.792846 66.704535,22.544156 73.455844C29.295465 80.207154,38.452206 84.000000,48.000000 84.000000C57.547794 84.000000,66.704535 80.207154,73.455844 73.455844C80.207154 66.704535,84.000000 57.547794,84.000000 48.000000Z" style="stroke:rgb(0.000000%,0.000000%,0.000000%); stroke-width: 0.500000;stroke-linecap: round;stroke-linejoin: round;stroke-miterlimit: 10.000000;fill: none;"></path>
  <path d="M72.000000 48.000000C72.000000 41.634804,69.471436 35.530310,64.970563 31.029437C60.469690 26.528564,54.365196 24.000000,48.000000 24.000000C41.634804 24.000000,35.530310 26.528564,31.029437 31.029437C26.528564 35.530310,24.000000 41.634804,24.000000 48.000000C24.000000 54.365196,26.528564 60.469690,31.029437 64.970563C35.530310 69.471436,41.634804 72.000000,48.000000 72.000000C54.365196 72.000000,60.469690 69.471436,64.970563 64.970563C69.471436 60.469690,72.000000 54.365196,72.000000 48.000000Z" style="fill: rgb(100.000000%,100.000000%,100.000000%);stroke: none;"></path>
  <path d="M72.000000 48.000000C72.000000 41.634804,69.471436 35.530310,64.970563 31.029437C60.469690 26.528564,54.365196 24.000000,48.000000 24.000000C41.634804 24.000000,35.530310 26.528564,31.029437 31.029437C26.528564 35.530310,24.000000 41.634804,24.000000 48.000000C24.000000 54.365196,26.528564 60.469690,31.029437 64.970563C35.530310 69.471436,41.634804 72.000000,48.000000 72.000000C54.365196 72.000000,60.469690 69.471436,64.970563 64.970563C69.471436 60.469690,72.000000 54.365196,72.000000 48.000000Z" style="stroke:rgb(0.000000%,0.000000%,0.000000%); stroke-width: 0.500000;stroke-linecap: round;stroke-linejoin: round;stroke-miterlimit: 10.000000;fill: none;"></path>
  <path d="M60.000000 48.000000C60.000000 44.817402,58.735718 41.765155,56.485281 39.514719C54.234845 37.264282,51.182598 36.000000,48.000000 36.000000C44.817402 36.000000,41.765155 37.264282,39.514719 39.514719C37.264282 41.765155,36.000000 44.817402,36.000000 48.000000C36.000000 51.182598,37.264282 54.234845,39.514719 56.485281C41.765155 58.735718,44.817402 60.000000,48.000000 60.000000C51.182598 60.000000,54.234845 58.735718,56.485281 56.485281C58.735718 54.234845,60.000000 51.182598,60.000000 48.000000Z" style="fill: rgb(60.000000%,30.000000%,30.000000%);stroke: none;"></path>
  <path d="M60.000000 48.000000C60.000000 44.817402,58.735718 41.765155,56.485281 39.514719C54.234845 37.264282,51.182598 36.000000,48.000000 36.000000C44.817402 36.000000,41.765155 37.264282,39.514719 39.514719C37.264282 41.765155,36.000000 44.817402,36.000000 48.000000C36.000000 51.182598,37.264282 54.234845,39.514719 56.485281C41.765155 58.735718,44.817402 60.000000,48.000000 60.000000C51.182598 60.000000,54.234845 58.735718,56.485281 56.485281C58.735718 54.234845,60.000000 51.182598,60.000000 48.000000Z" style="stroke:rgb(0.000000%,0.000000%,0.000000%); stroke-width: 0.500000;stroke-linecap: round;stroke-linejoin: round;stroke-miterlimit: 10.000000;fill: none;"></path>
  <path d="M52.695706 45.653141C52.695706 45.255316,52.537671 44.873785,52.256366 44.592481C51.975062 44.311176,51.593531 44.153141,51.195706 44.153141C50.797881 44.153141,50.416350 44.311176,50.135046 44.592481C49.853741 44.873785,49.695706 45.255316,49.695706 45.653141C49.695706 46.050966,49.853741 46.432497,50.135046 46.713801C50.416350 46.995106,50.797881 47.153141,51.195706 47.153141C51.593531 47.153141,51.975062 46.995106,52.256366 46.713801C52.537671 46.432497,52.695706 46.050966,52.695706 45.653141Z" style="fill: rgb(0.000000%,0.000000%,80.000000%);stroke: none;"></path>
  <path d="M52.695706 45.653141C52.695706 45.255316,52.537671 44.873785,52.256366 44.592481C51.975062 44.311176,51.593531 44.153141,51.195706 44.153141C50.797881 44.153141,50.416350 44.311176,50.135046 44.592481C49.853741 44.873785,49.695706 45.255316,49.695706 45.653141C49.695706 46.050966,49.853741 46.432497,50.135046 46.713801C50.416350 46.995106,50.797881 47.153141,51.195706 47.153141C51.593531 47.153141,51.975062 46.995106,52.256366 46.713801C52.537671 46.432497,52.695706 46.050966,52.695706 45.653141Z" style="stroke:rgb(0.000000%,0.000000%,0.000000%); stroke-width: 0.500000;stroke-linecap: round;stroke-linejoin: round;stroke-miterlimit: 10.000000;fill: none;"></path>
  <path d="M51.726197 47.217818C51.726197 46.819993,51.568161 46.438462,51.286857 46.157158C51.005552 45.875853,50.624021 45.717818,50.226197 45.717818C49.828372 45.717818,49.446841 45.875853,49.165536 46.157158C48.884232 46.438462,48.726197 46.819993,48.726197 47.217818C48.726197 47.615643,48.884232 47.997173,49.165536 48.278478C49.446841 48.559783,49.828372 48.717818,50.226197 48.717818C50.624021 48.717818,51.005552 48.559783,51.286857 48.278478C51.568161 47.997173,51.726197 47.615643,51.726197 47.217818Z" style="fill: rgb(0.000000%,0.000000%,80.000000%);stroke: none;"></path>
  <path d="M51.726197 47.217818C51.726197 46.819993,51.568161 46.438462,51.286857 46.157158C51.005552 45.875853,50.624021 45.717818,50.226197 45.717818C49.828372 45.717818,49.446841 45.875853,49.165536 46.157158C48.884232 46.438462,48.726197 46.819993,48.726197 47.217818C48.726197 47.615643,48.884232 47.997173,49.165536 48.278478C49.446841 48.559783,49.828372 48.717818,50.226197 48.717818C50.624021 48.717818,51.005552 48.559783,51.286857 48.278478C51.568161 47.997173,51.726197 47.615643,51.726197 47.217818Z" style="stroke:rgb(0.000000%,0.000000%,0.000000%); stroke-width: 0.500000;stroke-linecap: round;stroke-linejoin: round;stroke-miterlimit: 10.000000;fill: none;"></path>
  <path d="M49.451737 43.170651C49.451737 42.772826,49.293702 42.391295,49.012397 42.109991C48.731093 41.828686,48.349562 41.670651,47.951737 41.670651C47.553912 41.670651,47.172381 41.828686,46.891077 42.109991C46.609772 42.391295,46.451737 42.772826,46.451737 43.170651C46.451737 43.568475,46.609772 43.950006,46.891077 44.231311C47.172381 44.512615,47.553912 44.670651,47.951737 44.670651C48.349562 44.670651,48.731093 44.512615,49.012397 44.231311C49.293702 43.950006,49.451737 43.568475,49.451737 43.170651Z" style="fill: rgb(0.000000%,0.000000%,80.000000%);stroke: none;"></path>
  <path d="M49.451737 43.170651C49.451737 42.772826,49.293702 42.391295,49.012397 42.109991C48.731093 41.828686,48.349562 41.670651,47.951737 41.670651C47.553912 41.670651,47.172381 41.828686,46.891077 42.109991C46.609772 42.391295,46.451737 42.772826,46.451737 43.170651C46.451737 43.568475,46.609772 43.950006,46.891077 44.231311C47.172381 44.512615,47.553912 44.670651,47.951737 44.670651C48.349562 44.670651,48.731093 44.512615,49.012397 44.231311C49.293702 43.950006,49.451737 43.568475,49.451737 43.170651Z" style="stroke:rgb(0.000000%,0.000000%,0.000000%); stroke-width: 0.500000;stroke-linecap: round;stroke-linejoin: round;stroke-miterlimit: 10.000000;fill: none;"></path>
  <path d="M47.972408 49.792691C47.972408 49.394866,47.814373 49.013335,47.533068 48.732030C47.251763 48.450726,46.870233 48.292691,46.472408 48.292691C46.074583 48.292691,45.693052 48.450726,45.411748 48.732030C45.130443 49.013335,44.972408 49.394866,44.972408 49.792691C44.972408 50.190515,45.130443 50.572046,45.411748 50.853351C45.693052 51.134655,46.074583 51.292691,46.472408 51.292691C46.870233 51.292691,47.251763 51.134655,47.533068 50.853351C47.814373 50.572046,47.972408 50.190515,47.972408 49.792691Z" style="fill: rgb(0.000000%,0.000000%,80.000000%);stroke: none;"></path>
  <path d="M47.972408 49.792691C47.972408 49.394866,47.814373 49.013335,47.533068 48.732030C47.251763 48.450726,46.870233 48.292691,46.472408 48.292691C46.074583 48.292691,45.693052 48.450726,45.411748 48.732030C45.130443 49.013335,44.972408 49.394866,44.972408 49.792691C44.972408 50.190515,45.130443 50.572046,45.411748 50.853351C45.693052 51.134655,46.074583 51.292691,46.472408 51.292691C46.870233 51.292691,47.251763 51.134655,47.533068 50.853351C47.814373 50.572046,47.972408 50.190515,47.972408 49.792691Z" style="stroke:rgb(0.000000%,0.000000%,0.000000%); stroke-width: 0.500000;stroke-linecap: round;stroke-linejoin: round;stroke-miterlimit: 10.000000;fill: none;"></path>
  <path d="M43.998740 50.644498C43.998740 50.246673,43.840705 49.865143,43.559400 49.583838C43.278096 49.302533,42.896565 49.144498,42.498740 49.144498C42.100915 49.144498,41.719385 49.302533,41.438080 49.583838C41.156775 49.865143,40.998740 50.246673,40.998740 50.644498C40.998740 51.042323,41.156775 51.423854,41.438080 51.705158C41.719385 51.986463,42.100915 52.144498,42.498740 52.144498C42.896565 52.144498,43.278096 51.986463,43.559400 51.705158C43.840705 51.423854,43.998740 51.042323,43.998740 50.644498Z" style="fill: rgb(0.000000%,0.000000%,80.000000%);stroke: none;"></path>
  <path d="M43.998740 50.644498C43.998740 50.246673,43.840705 49.865143,43.559400 49.583838C43.278096 49.302533,42.896565 49.144498,42.498740 49.144498C42.100915 49.144498,41.719385 49.302533,41.438080 49.583838C41.156775 49.865143,40.998740 50.246673,40.998740 50.644498C40.998740 51.042323,41.156775 51.423854,41.438080 51.705158C41.719385 51.986463,42.100915 52.144498,42.498740 52.144498C42.896565 52.144498,43.278096 51.986463,43.559400 51.705158C43.840705 51.423854,43.998740 51.042323,43.998740 50.644498Z" style="stroke:rgb(0.000000%,0.000000%,0.000000%); stroke-width: 0.500000;stroke-linecap: round;stroke-linejoin: round;stroke-miterlimit: 10.000000;fill: none;"></path>
  <path d="M49.036833 45.234999C49.036833 44.837174,48.878798 44.455643,48.597494 44.174338C48.316189 43.893034,47.934658 43.734999,47.536833 43.734999C47.139009 43.734999,46.757478 43.893034,46.476173 44.174338C46.194869 44.455643,46.036833 44.837174,46.036833 45.234999C46.036833 45.632823,46.194869 46.014354,46.476173 46.295659C46.757478 46.576963,47.139009 46.734999,47.536833 46.734999C47.934658 46.734999,48.316189 46.576963,48.597494 46.295659C48.878798 46.014354,49.036833 45.632823,49.036833 45.234999Z" style="fill: rgb(0.000000%,0.000000%,80.000000%);stroke: none;"></path>
  <path d="M49.036833 45.234999C49.036833 44.837174,48.878798 44.455643,48.597494 44.174338C48.316189 43.893034,47.934658 43.734999,47.536833 43.734999C47.139009 43.734999,46.757478 43.893034,46.476173 44.174338C46.194869 44.455643,46.036833 44.837174,46.036833 45.234999C46.036833 45.632823,46.194869 46.014354,46.476173 46.295659C46.757478 46.576963,47.139009 46.734999,47.536833 46.734999C47.934658 46.734999,48.316189 46.576963,48.597494 46.295659C48.878798 46.014354,49.036833 45.632823,49.036833 45.234999Z" style="stroke:rgb(0.000000%,0.000000%,0.000000%); stroke-width: 0.500000;stroke-linecap: round;stroke-linejoin: round;stroke-miterlimit: 10.000000;fill: none;"></path>
  <path d="M45.459737 53.299075C45.459737 52.901250,45.301702 52.519719,45.020397 52.238414C44.739093 51.957110,44.357562 51.799075,43.959737 51.799075C43.561912 51.799075,43.180382 51.957110,42.899077 52.238414C42.617772 52.519719,42.459737 52.901250,42.459737 53.299075C42.459737 53.696899,42.617772 54.078430,42.899077 54.359735C43.180382 54.641039,43.561912 54.799075,43.959737 54.799075C44.357562 54.799075,44.739093 54.641039,45.020397 54.359735C45.301702 54.078430,45.459737 53.696899,45.459737 53.299075Z" style="fill: rgb(0.000000%,0.000000%,80.000000%);stroke: none;"></path>
  <path d="M45.459737 53.299075C45.459737 52.901250,45.301702 52.519719,45.020397 52.238414C44.739093 51.957110,44.357562 51.799075,43.959737 51.799075C43.561912 51.799075,43.180382 51.957110,42.899077 52.238414C42.617772 52.519719,42.459737 52.901250,42.459737 53.299075C42.459737 53.696899,42.617772 54.078430,42.899077 54.359735C43.180382 54.641039,43.561912 54.799075,43.959737 54.799075C44.357562 54.799075,44.739093 54.641039,45.020397 54.359735C45.301702 54.078430,45.459737 53.696899,45.459737 53.299075Z" style="stroke:rgb(0.000000%,0.000000%,0.000000%); stroke-width: 0.500000;stroke-linecap: round;stroke-linejoin: round;stroke-miterlimit: 10.000000;fill: none;"></path>
  <path d="M46.767506 44.429848C46.767506 44.032023,46.609471 43.650492,46.328166 43.369187C46.046861 43.087883,45.665331 42.929848,45.267506 42.929848C44.869681 42.929848,44.488150 43.087883,44.206846 43.369187C43.925541 43.650492,43.767506 44.032023,43.767506 44.429848C43.767506 44.827672,43.925541 45.209203,44.206846 45.490508C44.488150 45.771812,44.869681 45.929848,45.267506 45.929848C45.665331 45.929848,46.046861 45.771812,46.328166 45.490508C46.609471 45.209203,46.767506 44.827672,46.767506 44.429848Z" style="fill: rgb(0.000000%,0.000000%,80.000000%);stroke: none;"></path>
  <path d="M46.767506 44.429848C46.767506 44.032023,46.609471 43.650492,46.328166 43.369187C46.046861 43.087883,45.665331 42.929848,45.267506 42.929848C44.869681 42.929848,44.488150 43.087883,44.206846 43.369187C43.925541 43.650492,43.767506 44.032023,43.767506 44.429848C43.767506 44.827672,43.925541 45.209203,44.206846 45.490508C44.488150 45.771812,44.869681 45.929848,45.267506 45.929848C45.665331 45.929848,46.046861 45.771812,46.328166 45.490508C46.609471 45.209203,46.767506 44.827672,46.767506 44.429848Z" style="stroke:rgb(0.000000%,0.000000%,0.000000%); stroke-width: 0.500000;stroke-linecap: round;stroke-linejoin: round;stroke-miterlimit: 10.000000;fill: none;"></path>
  <path d="M46.300386 53.374859C46.300386 52.977034,46.142350 52.595504,45.861046 52.314199C45.579741 52.032894,45.198210 51.874859,44.800386 51.874859C44.402561 51.874859,44.021030 52.032894,43.739725 52.314199C43.458421 52.595504,43.300386 52.977034,43.300386 53.374859C43.300386 53.772684,43.458421 54.154215,43.739725 54.435519C44.021030 54.716824,44.402561 54.874859,44.800386 54.874859C45.198210 54.874859,45.579741 54.716824,45.861046 54.435519C46.142350 54.154215,46.300386 53.772684,46.300386 53.374859Z" style="fill: rgb(0.000000%,0.000000%,80.000000%);stroke: none;"></path>
  <path d="M46.300386 53.374859C46.300386 52.977034,46.142350 52.595504,45.861046 52.314199C45.579741 52.032894,45.198210 51.874859,44.800386 51.874859C44.402561 51.874859,44.021030 52.032894,43.739725 52.314199C43.458421 52.595504,43.300386 52.977034,43.300386 53.374859C43.300386 53.772684,43.458421 54.154215,43.739725 54.435519C44.021030 54.716824,44.402561 54.874859,44.800386 54.874859C45.198210 54.874859,45.579741 54.716824,45.861046 54.435519C46.142350 54.154215,46.300386 53.772684,46.300386 53.374859Z" style="stroke:rgb(0.000000%,0.000000%,0.000000%); stroke-width: 0.500000;stroke-linecap: round;stroke-linejoin: round;stroke-miterlimit: 10.000000;fill: none;"></path>
  <path d="M50.639836 46.364198C50.639836 45.966373,50.481801 45.584842,50.200496 45.303538C49.919192 45.022233,49.537661 44.864198,49.139836 44.864198C48.742012 44.864198,48.360481 45.022233,48.079176 45.303538C47.797871 45.584842,47.639836 45.966373,47.639836 46.364198C47.639836 46.762023,47.797871 47.143554,48.079176 47.424858C48.360481 47.706163,48.742012 47.864198,49.139836 47.864198C49.537661 47.864198,49.919192 47.706163,50.200496 47.424858C50.481801 47.143554,50.639836 46.762023,50.639836 46.364198Z" style="fill: rgb(0.000000%,0.000000%,80.000000%);stroke: none;"></path>
  <path d="M50.639836 46.364198C50.639836 45.966373,50.481801 45.584842,50.200496 45.303538C49.919192 45.022233,49.537661 44.864198,49.139836 44.864198C48.742012 44.864198,48.360481 45.022233,48.079176 45.303538C47.797871 45.584842,47.639836 45.966373,47.639836 46.364198C47.639836 46.762023,47.797871 47.143554,48.079176 47.424858C48.360481 47.706163,48.742012 47.864198,49.139836 47.864198C49.537661 47.864198,49.919192 47.706163,50.200496 47.424858C50.481801 47.143554,50.639836 46.762023,50.639836 46.364198Z" style="stroke:rgb(0.000000%,0.000000%,0.000000%); stroke-width: 0.500000;stroke-linecap: round;stroke-linejoin: round;stroke-miterlimit: 10.000000;fill: none;"></path>
  <path d="M51.143512 49.032251C51.143512 48.634426,50.985476 48.252895,50.704172 47.971591C50.422867 47.690286,50.041336 47.532251,49.643512 47.532251C49.245687 47.532251,48.864156 47.690286,48.582851 47.971591C48.301547 48.252895,48.143512 48.634426,48.143512 49.032251C48.143512 49.430075,48.301547 49.811606,48.582851 50.092911C48.864156 50.374215,49.245687 50.532251,49.643512 50.532251C50.041336 50.532251,50.422867 50.374215,50.704172 50.092911C50.985476 49.811606,51.143512 49.430075,51.143512 49.032251Z" style="fill: rgb(0.000000%,0.000000%,80.000000%);stroke: none;"></path>
  <path d="M51.143512 49.032251C51.143512 48.634426,50.985476 48.252895,50.704172 47.971591C50.422867 47.690286,50.041336 47.532251,49.643512 47.532251C49.245687 47.532251,48.864156 47.690286,48.582851 47.971591C48.301547 48.252895,48.143512 48.634426,48.143512 49.032251C48.143512 49.430075,48.301547 49.811606,48.582851 50.092911C48.864156 50.374215,49.245687 50.532251,49.643512 50.532251C50.041336 50.532251,50.422867 50.374215,50.704172 50.092911C50.985476 49.811606,51.143512 49.430075,51.143512 49.032251Z" style="stroke:rgb(0.000000%,0.000000%,0.000000%); stroke-width: 0.500000;stroke-linecap: round;stroke-linejoin: round;stroke-miterlimit: 10.000000;fill: none;"></path>
  <path d="M49.764502 45.532232C49.764502 45.134408,49.606467 44.752877,49.325162 44.471572C49.043858 44.190268,48.662327 44.032232,48.264502 44.032232C47.866677 44.032232,47.485146 44.190268,47.203842 44.471572C46.922537 44.752877,46.764502 45.134408,46.764502 45.532232C46.764502 45.930057,46.922537 46.311588,47.203842 46.592893C47.485146 46.874197,47.866677 47.032232,48.264502 47.032232C48.662327 47.032232,49.043858 46.874197,49.325162 46.592893C49.606467 46.311588,49.764502 45.930057,49.764502 45.532232Z" style="fill: rgb(0.000000%,0.000000%,80.000000%);stroke: none;"></path>
  <path d="M49.764502 45.532232C49.764502 45.134408,49.606467 44.752877,49.325162 44.471572C49.043858 44.190268,48.662327 44.032232,48.264502 44.032232C47.866677 44.032232,47.485146 44.190268,47.203842 44.471572C46.922537 44.752877,46.764502 45.134408,46.764502 45.532232C46.764502 45.930057,46.922537 46.311588,47.203842 46.592893C47.485146 46.874197,47.866677 47.032232,48.264502 47.032232C48.662327 47.032232,49.043858 46.874197,49.325162 46.592893C49.606467 46.311588,49.764502 45.930057,49.764502 45.532232Z" style="stroke:rgb(0.000000%,0.000000%,0.000000%); stroke-width: 0.500000;stroke-linecap: round;stroke-linejoin: round;stroke-miterlimit: 10.000000;fill: none;"></path>
  <path d="M204.000000 48.000000C204.000000 35.269608,198.942872 23.060621,189.941126 14.058874C180.939379 5.057128,168.730392 -0.000000,156.000000 -0.000000C143.269608 -0.000000,131.060621 5.057128,122.058874 14.058874C113.057128 23.060621,108.000000 35.269608,108.000000 48.000000C108.000000 60.730392,113.057128 72.939379,122.058874 81.941126C131.060621 90.942872,143.269608 96.000000,156.000000 96.000000C168.730392 96.000000,180.939379 90.942872,189.941126 81.941126C198.942872 72.939379,204.000000 60.730392,204.000000 48.000000Z" style="fill: rgb(100.000000%,100.000000%,100.000000%);stroke: none;"></path>
  <path d="M204.000000 48.000000C204.000000 35.269608,198.942872 23.060621,189.941126 14.058874C180.939379 5.057128,168.730392 -0.000000,156.000000 -0.000000C143.269608 -0.000000,131.060621 5.057128,122.058874 14.058874C113.057128 23.060621,108.000000 35.269608,108.000000 48.000000C108.000000 60.730392,113.057128 72.939379,122.058874 81.941126C131.060621 90.942872,143.269608 96.000000,156.000000 96.000000C168.730392 96.000000,180.939379 90.942872,189.941126 81.941126C198.942872 72.939379,204.000000 60.730392,204.000000 48.000000Z" style="stroke:rgb(0.000000%,0.000000%,0.000000%); stroke-width: 0.500000;stroke-linecap: round;stroke-linejoin: round;stroke-miterlimit: 10.000000;fill: none;"></path>
  <path d="M192.000000 48.000000C192.000000 38.452206,188.207154 29.295465,181.455844 22.544156C174.704535 15.792846,165.547794 12.000000,156.000000 12.000000C146.452206 12.000000,137.295465 15.792846,130.544156 22.544156C123.792846 29.295465,120.000000 38.452206,120.000000 48.000000C120.000000 57.547794,123.792846 66.704535,130.544156 73.455844C137.295465 80.207154,146.452206 84.000000,156.000000 84.000000C165.547794 84.000000,174.704535 80.207154,181.455844 73.455844C188.207154 66.704535,192.000000 57.547794,192.000000 48.000000Z" style="fill: rgb(70.000000%,80.000000%,90.000000%);stroke: none;"></path>
  <path d="M192.000000 48.000000C192.000000 38.452206,188.207154 29.295465,181.455844 22.544156C174.704535 15.792846,165.547794 12.000000,156.000000 12.000000C146.452206 12.000000,137.295465 15.792846,130.544156 22.544156C123.792846 29.295465,120.000000 38.452206,120.000000 48.000000C120.000000 57.547794,123.792846 66.704535,130.544156 73.455844C137.295465 80.207154,146.452206 84.000000,156.000000 84.000000C165.547794 84.000000,174.704535 80.207154,181.455844 73.455844C188.207154 66.704535,192.000000 57.547794,192.000000 48.000000Z" style="stroke:rgb(0.000000%,0.000000%,0.000000%); stroke-width: 0.500000;stroke-linecap: round;stroke-linejoin: round;stroke-miterlimit: 10.000000;fill: none;"></path>
  <path d="M180.000000 48.000000C180.000000 41.634804,177.471436 35.530310,172.970563 31.029437C168.469690 26.528564,162.365196 24.000000,156.000000 24.000000C149.634804 24.000000,143.530310 26.528564,139.029437 31.029437C134.528564 35.530310,132.000000 41.634804,132.000000 48.000000C132.000000 54.365196,134.528564 60.469690,139.029437 64.970563C143.530310 69.471436,149.634804 72.000000,156.000000 72.000000C162.365196 72.000000,168.469690 69.471436,172.970563 64.970563C177.471436 60.469690,180.000000 54.365196,180.000000 48.000000Z" style="fill: rgb(100.000000%,100.000000%,100.000000%);stroke: none;"></path>
  <path d="M180.000000 48.000000C180.000000 41.634804,177.471436 35.530310,172.970563 31.029437C168.469690 26.528564,162.365196 24.000000,156.000000 24.000000C149.634804 24.000000,143.530310 26.528564,139.029437 31.029437C134.528564 35.530310,132.000000 41.634804,132.000000 48.000000C132.000000 54.365196,134.528564 60.469690,139.029437 64.970563C143.530310 69.471436,149.634804 72.000000,156.000000 72.000000C162.365196 72.000000,168.469690 69.471436,172.970563 64.970563C177.471436 60.469690,180.000000 54.365196,180.000000 48.000000Z" style="stroke:rgb(0.000000%,0.000000%,0.000000%); stroke-width: 0.500000;stroke-linecap: round;stroke-linejoin: round;stroke-miterlimit: 10.000000;fill: none;"></path>
  <path d="M168.000000 48.000000C168.000000 44.817402,166.735718 41.765155,164.485281 39.514719C162.234845 37.264282,159.182598 36.000000,156.000000 36.000000C152.817402 36.000000,149.765155 37.264282,147.514719 39.514719C145.264282 41.765155,144.000000 44.817402,144.000000 48.000000C144.000000 51.182598,145.264282 54.234845,147.514719 56.485281C149.765155 58.735718,152.817402 60.000000,156.000000 60.000000C159.182598 60.000000,162.234845 58.735718,164.485281 56.485281C166.735718 54.234845,168.000000 51.182598,168.000000 48.000000Z" style="fill: rgb(60.000000%,30.000000%,30.000000%);stroke: none;"></path>
  <path d="M168.000000 48.000000C168.000000 44.817402,166.735718 41.765155,164.485281 39.514719C162.234845 37.264282,159.182598 36.000000,156.000000 36.000000C152.817402 36.000000,149.765155 37.264282,147.514719 39.514719C145.264282 41.765155,144.000000 44.817402,144.000000 48.000000C144.000000 51.182598,145.264282 54.234845,147.514719 56.485281C149.765155 58.735718,152.817402 60.000000,156.000000 60.000000C159.182598 60.000000,162.234845 58.735718,164.485281 56.485281C166.735718 54.234845,168.000000 51.182598,168.000000 48.000000Z" style="stroke:rgb(0.000000%,0.000000%,0.000000%); stroke-width: 0.500000;stroke-linecap: round;stroke-linejoin: round;stroke-miterlimit: 10.000000;fill: none;"></path>
  <path d="M152.463158 46.366977C152.463158 45.969152,152.305123 45.587621,152.023818 45.306317C151.742514 45.025012,151.360983 44.866977,150.963158 44.866977C150.565333 44.866977,150.183802 45.025012,149.902498 45.306317C149.621193 45.587621,149.463158 45.969152,149.463158 46.366977C149.463158 46.764802,149.621193 47.146332,149.902498 47.427637C150.183802 47.708942,150.565333 47.866977,150.963158 47.866977C151.360983 47.866977,151.742514 47.708942,152.023818 47.427637C152.305123 47.146332,152.463158 46.764802,152.463158 46.366977Z" style="fill: rgb(0.000000%,0.000000%,80.000000%);stroke: none;"></path>
  <path d="M152.463158 46.366977C152.463158 45.969152,152.305123 45.587621,152.023818 45.306317C151.742514 45.025012,151.360983 44.866977,150.963158 44.866977C150.565333 44.866977,150.183802 45.025012,149.902498 45.306317C149.621193 45.587621,149.463158 45.969152,149.463158 46.366977C149.463158 46.764802,149.621193 47.146332,149.902498 47.427637C150.183802 47.708942,150.565333 47.866977,150.963158 47.866977C151.360983 47.866977,151.742514 47.708942,152.023818 47.427637C152.305123 47.146332,152.463158 46.764802,152.463158 46.366977Z" style="stroke:rgb(0.000000%,0.000000%,0.000000%); stroke-width: 0.500000;stroke-linecap: round;stroke-linejoin: round;stroke-miterlimit: 10.000000;fill: none;"></path>
  <path d="M148.027080 34.289141C148.027080 33.891317,147.869044 33.509786,147.587740 33.228481C147.306435 32.947177,146.924904 32.789141,146.527080 32.789141C146.129255 32.789141,145.747724 32.947177,145.466420 33.228481C145.185115 33.509786,145.027080 33.891317,145.027080 34.289141C145.027080 34.686966,145.185115 35.068497,145.466420 35.349801C145.747724 35.631106,146.129255 35.789141,146.527080 35.789141C146.924904 35.789141,147.306435 35.631106,147.587740 35.349801C147.869044 35.068497,148.027080 34.686966,148.027080 34.289141Z" style="fill: rgb(0.000000%,0.000000%,80.000000%);stroke: none;"></path>
  <path d="M148.027080 34.289141C148.027080 33.891317,147.869044 33.509786,147.587740 33.228481C147.306435 32.947177,146.924904 32.789141,146.527080 32.789141C146.129255 32.789141,145.747724 32.947177,145.466420 33.228481C145.185115 33.509786,145.027080 33.891317,145.027080 34.289141C145.027080 34.686966,145.185115 35.068497,145.466420 35.349801C145.747724 35.631106,146.129255 35.789141,146.527080 35.789141C146.924904 35.789141,147.306435 35.631106,147.587740 35.349801C147.869044 35.068497,148.027080 34.686966,148.027080 34.289141Z" style="stroke:rgb(0.000000%,0.000000%,0.000000%); stroke-width: 0.500000;stroke-linecap: round;stroke-linejoin: round;stroke-miterlimit: 10.000000;fill: none;"></path>
  <path d="M167.996713 49.634716C167.996713 49.236891,167.838677 48.855360,167.557373 48.574055C167.276068 48.292751,166.894537 48.134716,166.496713 48.134716C166.098888 48.134716,165.717357 48.292751,165.436052 48.574055C165.154748 48.855360,164.996713 49.236891,164.996713 49.634716C164.996713 50.032540,165.154748 50.414071,165.436052 50.695376C165.717357 50.976680,166.098888 51.134716,166.496713 51.134716C166.894537 51.134716,167.276068 50.976680,167.557373 50.695376C167.838677 50.414071,167.996713 50.032540,167.996713 49.634716Z" style="fill: rgb(0.000000%,0.000000%,80.000000%);stroke: none;"></path>
  <path d="M167.996713 49.634716C167.996713 49.236891,167.838677 48.855360,167.557373 48.574055C167.276068 48.292751,166.894537 48.134716,166.496713 48.134716C166.098888 48.134716,165.717357 48.292751,165.436052 48.574055C165.154748 48.855360,164.996713 49.236891,164.996713 49.634716C164.996713 50.032540,165.154748 50.414071,165.436052 50.695376C165.717357 50.976680,166.098888 51.134716,166.496713 51.134716C166.894537 51.134716,167.276068 50.976680,167.557373 50.695376C167.838677 50.414071,167.996713 50.032540,167.996713 49.634716Z" style="stroke:rgb(0.000000%,0.000000%,0.000000%); stroke-width: 0.500000;stroke-linecap: round;stroke-linejoin: round;stroke-miterlimit: 10.000000;fill: none;"></path>
  <path d="M158.220827 62.043000C158.220827 61.645175,158.062792 61.263644,157.781487 60.982340C157.500183 60.701035,157.118652 60.543000,156.720827 60.543000C156.323002 60.543000,155.941471 60.701035,155.660167 60.982340C155.378862 61.263644,155.220827 61.645175,155.220827 62.043000C155.220827 62.440825,155.378862 62.822356,155.660167 63.103660C155.941471 63.384965,156.323002 63.543000,156.720827 63.543000C157.118652 63.543000,157.500183 63.384965,157.781487 63.103660C158.062792 62.822356,158.220827 62.440825,158.220827 62.043000Z" style="fill: rgb(0.000000%,0.000000%,80.000000%);stroke: none;"></path>
  <path d="M158.220827 62.043000C158.220827 61.645175,158.062792 61.263644,157.781487 60.982340C157.500183 60.701035,157.118652 60.543000,156.720827 60.543000C156.323002 60.543000,155.941471 60.701035,155.660167 60.982340C155.378862 61.263644,155.220827 61.645175,155.220827 62.043000C155.220827 62.440825,155.378862 62.822356,155.660167 63.103660C155.941471 63.384965,156.323002 63.543000,156.720827 63.543000C157.118652 63.543000,157.500183 63.384965,157.781487 63.103660C158.062792 62.822356,158.220827 62.440825,158.220827 62.043000Z" style="stroke:rgb(0.000000%,0.000000%,0.000000%); stroke-width: 0.500000;stroke-linecap: round;stroke-linejoin: round;stroke-miterlimit: 10.000000;fill: none;"></path>
  <path d="M128.730717 13.848106C128.730717 13.450281,128.572681 13.068751,128.291377 12.787446C128.010072 12.506141,127.628541 12.348106,127.230717 12.348106C126.832892 12.348106,126.451361 12.506141,126.170056 12.787446C125.888752 13.068751,125.730717 13.450281,125.730717 13.848106C125.730717 14.245931,125.888752 14.627462,126.170056 14.908766C126.451361 15.190071,126.832892 15.348106,127.230717 15.348106C127.628541 15.348106,128.010072 15.190071,128.291377 14.908766C128.572681 14.627462,128.730717 14.245931,128.730717 13.848106Z" style="fill: rgb(0.000000%,0.000000%,80.000000%);stroke: none;"></path>
  <path d="M128.730717 13.848106C128.730717 13.450281,128.572681 13.068751,128.291377 12.787446C128.010072 12.506141,127.628541 12.348106,127.230717 12.348106C126.832892 12.348106,126.451361 12.506141,126.170056 12.787446C125.888752 13.068751,125.730717 13.450281,125.730717 13.848106C125.730717 14.245931,125.888752 14.627462,126.170056 14.908766C126.451361 15.190071,126.832892 15.348106,127.230717 15.348106C127.628541 15.348106,128.010072 15.190071,128.291377 14.908766C128.572681 14.627462,128.730717 14.245931,128.730717 13.848106Z" style="stroke:rgb(0.000000%,0.000000%,0.000000%); stroke-width: 0.500000;stroke-linecap: round;stroke-linejoin: round;stroke-miterlimit: 10.000000;fill: none;"></path>
  <path d="M149.699009 39.082462C149.699009 38.684637,149.540973 38.303107,149.259669 38.021802C148.978364 37.740497,148.596833 37.582462,148.199009 37.582462C147.801184 37.582462,147.419653 37.740497,147.138348 38.021802C146.857044 38.303107,146.699009 38.684637,146.699009 39.082462C146.699009 39.480287,146.857044 39.861818,147.138348 40.143122C147.419653 40.424427,147.801184 40.582462,148.199009 40.582462C148.596833 40.582462,148.978364 40.424427,149.259669 40.143122C149.540973 39.861818,149.699009 39.480287,149.699009 39.082462Z" style="fill: rgb(0.000000%,0.000000%,80.000000%);stroke: none;"></path>
  <path d="M149.699009 39.082462C149.699009 38.684637,149.540973 38.303107,149.259669 38.021802C148.978364 37.740497,148.596833 37.582462,148.199009 37.582462C147.801184 37.582462,147.419653 37.740497,147.138348 38.021802C146.857044 38.303107,146.699009 38.684637,146.699009 39.082462C146.699009 39.480287,146.857044 39.861818,147.138348 40.143122C147.419653 40.424427,147.801184 40.582462,148.199009 40.582462C148.596833 40.582462,148.978364 40.424427,149.259669 40.143122C149.540973 39.861818,149.699009 39.480287,149.699009 39.082462Z" style="stroke:rgb(0.000000%,0.000000%,0.000000%); stroke-width: 0.500000;stroke-linecap: round;stroke-linejoin: round;stroke-miterlimit: 10.000000;fill: none;"></path>
  <path d="M160.832034 70.486610C160.832034 70.088785,160.673998 69.707255,160.392694 69.425950C160.111389 69.144645,159.729858 68.986610,159.332034 68.986610C158.934209 68.986610,158.552678 69.144645,158.271374 69.425950C157.990069 69.707255,157.832034 70.088785,157.832034 70.486610C157.832034 70.884435,157.990069 71.265966,158.271374 71.547270C158.552678 71.828575,158.934209 71.986610,159.332034 71.986610C159.729858 71.986610,160.111389 71.828575,160.392694 71.547270C160.673998 71.265966,160.832034 70.884435,160.832034 70.486610Z" style="fill: rgb(0.000000%,0.000000%,80.000000%);stroke: none;"></path>
  <path d="M160.832034 70.486610C160.832034 70.088785,160.673998 69.707255,160.392694 69.425950C160.111389 69.144645,159.729858 68.986610,159.332034 68.986610C158.934209 68.986610,158.552678 69.144645,158.271374 69.425950C157.990069 69.707255,157.832034 70.088785,157.832034 70.486610C157.832034 70.884435,157.990069 71.265966,158.271374 71.547270C158.552678 71.828575,158.934209 71.986610,159.332034 71.986610C159.729858 71.986610,160.111389 71.828575,160.392694 71.547270C160.673998 71.265966,160.832034 70.884435,160.832034 70.486610Z" style="stroke:rgb(0.000000%,0.000000%,0.000000%); stroke-width: 0.500000;stroke-linecap: round;stroke-linejoin: round;stroke-miterlimit: 10.000000;fill: none;"></path>
  <path d="M154.962135 40.970870C154.962135 40.573045,154.804100 40.191514,154.522796 39.910209C154.241491 39.628905,153.859960 39.470870,153.462135 39.470870C153.064311 39.470870,152.682780 39.628905,152.401475 39.910209C152.120171 40.191514,151.962135 40.573045,151.962135 40.970870C151.962135 41.368694,152.120171 41.750225,152.401475 42.031530C152.682780 42.312834,153.064311 42.470870,153.462135 42.470870C153.859960 42.470870,154.241491 42.312834,154.522796 42.031530C154.804100 41.750225,154.962135 41.368694,154.962135 40.970870Z" style="fill: rgb(0.000000%,0.000000%,80.000000%);stroke: none;"></path>
  <path d="M154.962135 40.970870C154.962135 40.573045,154.804100 40.191514,154.522796 39.910209C154.241491 39.628905,153.859960 39.470870,153.462135 39.470870C153.064311 39.470870,152.682780 39.628905,152.401475 39.910209C152.120171 40.191514,151.962135 40.573045,151.962135 40.970870C151.962135 41.368694,152.120171 41.750225,152.401475 42.031530C152.682780 42.312834,153.064311 42.470870,153.462135 42.470870C153.859960 42.470870,154.241491 42.312834,154.522796 42.031530C154.804100 41.750225,154.962135 41.368694,154.962135 40.970870Z" style="stroke:rgb(0.000000%,0.000000%,0.000000%); stroke-width: 0.500000;stroke-linecap: round;stroke-linejoin: round;stroke-miterlimit: 10.000000;fill: none;"></path>
  <path d="M145.556784 54.152042C145.556784 53.754217,145.398749 53.372686,145.117444 53.091381C144.836139 52.810077,144.454609 52.652042,144.056784 52.652042C143.658959 52.652042,143.277428 52.810077,142.996124 53.091381C142.714819 53.372686,142.556784 53.754217,142.556784 54.152042C142.556784 54.549866,142.714819 54.931397,142.996124 55.212702C143.277428 55.494006,143.658959 55.652042,144.056784 55.652042C144.454609 55.652042,144.836139 55.494006,145.117444 55.212702C145.398749 54.931397,145.556784 54.549866,145.556784 54.152042Z" style="fill: rgb(0.000000%,0.000000%,80.000000%);stroke: none;"></path>
  <path d="M145.556784 54.152042C145.556784 53.754217,145.398749 53.372686,145.117444 53.091381C144.836139 52.810077,144.454609 52.652042,144.056784 52.652042C143.658959 52.652042,143.277428 52.810077,142.996124 53.091381C142.714819 53.372686,142.556784 53.754217,142.556784 54.152042C142.556784 54.549866,142.714819 54.931397,142.996124 55.212702C143.277428 55.494006,143.658959 55.652042,144.056784 55.652042C144.454609 55.652042,144.836139 55.494006,145.117444 55.212702C145.398749 54.931397,145.556784 54.549866,145.556784 54.152042Z" style="stroke:rgb(0.000000%,0.000000%,0.000000%); stroke-width: 0.500000;stroke-linecap: round;stroke-linejoin: round;stroke-miterlimit: 10.000000;fill: none;"></path>
  <path d="M143.015987 39.385861C143.015987 38.988036,142.857952 38.606505,142.576647 38.325200C142.295343 38.043896,141.913812 37.885861,141.515987 37.885861C141.118162 37.885861,140.736631 38.043896,140.455327 38.325200C140.174022 38.606505,140.015987 38.988036,140.015987 39.385861C140.015987 39.783685,140.174022 40.165216,140.455327 40.446521C140.736631 40.727825,141.118162 40.885861,141.515987 40.885861C141.913812 40.885861,142.295343 40.727825,142.576647 40.446521C142.857952 40.165216,143.015987 39.783685,143.015987 39.385861Z" style="fill: rgb(0.000000%,0.000000%,80.000000%);stroke: none;"></path>
  <path d="M143.015987 39.385861C143.015987 38.988036,142.857952 38.606505,142.576647 38.325200C142.295343 38.043896,141.913812 37.885861,141.515987 37.885861C141.118162 37.885861,140.736631 38.043896,140.455327 38.325200C140.174022 38.606505,140.015987 38.988036,140.015987 39.385861C140.015987 39.783685,140.174022 40.165216,140.455327 40.446521C140.736631 40.727825,141.118162 40.885861,141.515987 40.885861C141.913812 40.885861,142.295343 40.727825,142.576647 40.446521C142.857952 40.165216,143.015987 39.783685,143.015987 39.385861Z" style="stroke:rgb(0.000000%,0.000000%,0.000000%); stroke-width: 0.500000;stroke-linecap: round;stroke-linejoin: round;stroke-miterlimit: 10.000000;fill: none;"></path>
  <path d="M143.361238 30.531131C143.361238 30.133306,143.203203 29.751776,142.921898 29.470471C142.640594 29.189166,142.259063 29.031131,141.861238 29.031131C141.463413 29.031131,141.081883 29.189166,140.800578 29.470471C140.519273 29.751776,140.361238 30.133306,140.361238 30.531131C140.361238 30.928956,140.519273 31.310487,140.800578 31.591791C141.081883 31.873096,141.463413 32.031131,141.861238 32.031131C142.259063 32.031131,142.640594 31.873096,142.921898 31.591791C143.203203 31.310487,143.361238 30.928956,143.361238 30.531131Z" style="fill: rgb(0.000000%,0.000000%,80.000000%);stroke: none;"></path>
  <path d="M143.361238 30.531131C143.361238 30.133306,143.203203 29.751776,142.921898 29.470471C142.640594 29.189166,142.259063 29.031131,141.861238 29.031131C141.463413 29.031131,141.081883 29.189166,140.800578 29.470471C140.519273 29.751776,140.361238 30.133306,140.361238 30.531131C140.361238 30.928956,140.519273 31.310487,140.800578 31.591791C141.081883 31.873096,141.463413 32.031131,141.861238 32.031131C142.259063 32.031131,142.640594 31.873096,142.921898 31.591791C143.203203 31.310487,143.361238 30.928956,143.361238 30.531131Z" style="stroke:rgb(0.000000%,0.000000%,0.000000%); stroke-width: 0.500000;stroke-linecap: round;stroke-linejoin: round;stroke-miterlimit: 10.000000;fill: none;"></path>
  <path d="M158.100365 26.308949C158.100365 25.911124,157.942329 25.529593,157.661025 25.248289C157.379720 24.966984,156.998189 24.808949,156.600365 24.808949C156.202540 24.808949,155.821009 24.966984,155.539704 25.248289C155.258400 25.529593,155.100365 25.911124,155.100365 26.308949C155.100365 26.706773,155.258400 27.088304,155.539704 27.369609C155.821009 27.650913,156.202540 27.808949,156.600365 27.808949C156.998189 27.808949,157.379720 27.650913,157.661025 27.369609C157.942329 27.088304,158.100365 26.706773,158.100365 26.308949Z" style="fill: rgb(0.000000%,0.000000%,80.000000%);stroke: none;"></path>
  <path d="M158.100365 26.308949C158.100365 25.911124,157.942329 25.529593,157.661025 25.248289C157.379720 24.966984,156.998189 24.808949,156.600365 24.808949C156.202540 24.808949,155.821009 24.966984,155.539704 25.248289C155.258400 25.529593,155.100365 25.911124,155.100365 26.308949C155.100365 26.706773,155.258400 27.088304,155.539704 27.369609C155.821009 27.650913,156.202540 27.808949,156.600365 27.808949C156.998189 27.808949,157.379720 27.650913,157.661025 27.369609C157.942329 27.088304,158.100365 26.706773,158.100365 26.308949Z" style="stroke:rgb(0.000000%,0.000000%,0.000000%); stroke-width: 0.500000;stroke-linecap: round;stroke-linejoin: round;stroke-miterlimit: 10.000000;fill: none;"></path>
  <path d="M96.000000 156.000000C96.000000 143.269608,90.942872 131.060621,81.941126 122.058874C72.939379 113.057128,60.730392 108.000000,48.000000 108.000000C35.269608 108.000000,23.060621 113.057128,14.058874 122.058874C5.057128 131.060621,0.000000 143.269608,0.000000 156.000000C0.000000 168.730392,5.057128 180.939379,14.058874 189.941126C23.060621 198.942872,35.269608 204.000000,48.000000 204.000000C60.730392 204.000000,72.939379 198.942872,81.941126 189.941126C90.942872 180.939379,96.000000 168.730392,96.000000 156.000000Z" style="fill: rgb(100.000000%,100.000000%,100.000000%);stroke: none;"></path>
  <path d="M96.000000 156.000000C96.000000 143.269608,90.942872 131.060621,81.941126 122.058874C72.939379 113.057128,60.730392 108.000000,48.000000 108.000000C35.269608 108.000000,23.060621 113.057128,14.058874 122.058874C5.057128 131.060621,0.000000 143.269608,0.000000 156.000000C0.000000 168.730392,5.057128 180.939379,14.058874 189.941126C23.060621 198.942872,35.269608 204.000000,48.000000 204.000000C60.730392 204.000000,72.939379 198.942872,81.941126 189.941126C90.942872 180.939379,96.000000 168.730392,96.000000 156.000000Z" style="stroke:rgb(0.000000%,0.000000%,0.000000%); stroke-width: 0.500000;stroke-linecap: round;stroke-linejoin: round;stroke-miterlimit: 10.000000;fill: none;"></path>
  <path d="M84.000000 156.000000C84.000000 146.452206,80.207154 137.295465,73.455844 130.544156C66.704535 123.792846,57.547794 120.000000,48.000000 120.000000C38.452206 120.000000,29.295465 123.792846,22.544156 130.544156C15.792846 137.295465,12.000000 146.452206,12.000000 156.000000C12.000000 165.547794,15.792846 174.704535,22.544156 181.455844C29.295465 188.207154,38.452206 192.000000,48.000000 192.000000C57.547794 192.000000,66.704535 188.207154,73.455844 181.455844C80.207154 174.704535,84.000000 165.547794,84.000000 156.000000Z" style="fill: rgb(70.000000%,80.000000%,90.000000%);stroke: none;"></path>
  <path d="M84.000000 156.000000C84.000000 146.452206,80.207154 137.295465,73.455844 130.544156C66.704535 123.792846,57.547794 120.000000,48.000000 120.000000C38.452206 120.000000,29.295465 123.792846,22.544156 130.544156C15.792846 137.295465,12.000000 146.452206,12.000000 156.000000C12.000000 165.547794,15.792846 174.704535,22.544156 181.455844C29.295465 188.207154,38.452206 192.000000,48.000000 192.000000C57.547794 192.000000,66.704535 188.207154,73.455844 181.455844C80.207154 174.704535,84.000000 165.547794,84.000000 156.000000Z" style="stroke:rgb(0.000000%,0.000000%,0.000000%); stroke-width: 0.500000;stroke-linecap: round;stroke-linejoin: round;stroke-miterlimit: 10.000000;fill: none;"></path>
  <path d="M72.000000 156.000000C72.000000 149.634804,69.471436 143.530310,64.970563 139.029437C60.469690 134.528564,54.365196 132.000000,48.000000 132.000000C41.634804 132.000000,35.530310 134.528564,31.029437 139.029437C26.528564 143.530310,24.000000 149.634804,24.000000 156.000000C24.000000 162.365196,26.528564 168.469690,31.029437 172.970563C35.530310 177.471436,41.634804 180.000000,48.000000 180.000000C54.365196 180.000000,60.469690 177.471436,64.970563 172.970563C69.471436 168.469690,72.000000 162.365196,72.000000 156.000000Z" style="fill: rgb(100.000000%,100.000000%,100.000000%);stroke: none;"></path>
  <path d="M72.000000 156.000000C72.000000 149.634804,69.471436 143.530310,64.970563 139.029437C60.469690 134.528564,54.365196 132.000000,48.000000 132.000000C41.634804 132.000000,35.530310 134.528564,31.029437 139.029437C26.528564 143.530310,24.000000 149.634804,24.000000 156.000000C24.000000 162.365196,26.528564 168.469690,31.029437 172.970563C35.530310 177.471436,41.634804 180.000000,48.000000 180.000000C54.365196 180.000000,60.469690 177.471436,64.970563 172.970563C69.471436 168.469690,72.000000 162.365196,72.000000 156.000000Z" style="stroke:rgb(0.000000%,0.000000%,0.000000%); stroke-width: 0.500000;stroke-linecap: round;stroke-linejoin: round;stroke-miterlimit: 10.000000;fill: none;"></path>
  <path d="M60.000000 156.000000C60.000000 152.817402,58.735718 149.765155,56.485281 147.514719C54.234845 145.264282,51.182598 144.000000,48.000000 144.000000C44.817402 144.000000,41.765155 145.264282,39.514719 147.514719C37.264282 149.765155,36.000000 152.817402,36.000000 156.000000C36.000000 159.182598,37.264282 162.234845,39.514719 164.485281C41.765155 166.735718,44.817402 168.000000,48.000000 168.000000C51.182598 168.000000,54.234845 166.735718,56.485281 164.485281C58.735718 162.234845,60.000000 159.182598,60.000000 156.000000Z" style="fill: rgb(60.000000%,30.000000%,30.000000%);stroke: none;"></path>
  <path d="M60.000000 156.000000C60.000000 152.817402,58.735718 149.765155,56.485281 147.514719C54.234845 145.264282,51.182598 144.000000,48.000000 144.000000C44.817402 144.000000,41.765155 145.264282,39.514719 147.514719C37.264282 149.765155,36.000000 152.817402,36.000000 156.000000C36.000000 159.182598,37.264282 162.234845,39.514719 164.485281C41.765155 166.735718,44.817402 168.000000,48.000000 168.000000C51.182598 168.000000,54.234845 166.735718,56.485281 164.485281C58.735718 162.234845,60.000000 159.182598,60.000000 156.000000Z" style="stroke:rgb(0.000000%,0.000000%,0.000000%); stroke-width: 0.500000;stroke-linecap: round;stroke-linejoin: round;stroke-miterlimit: 10.000000;fill: none;"></path>
  <path d="M30.690748 144.262237C30.690748 143.864413,30.532713 143.482882,30.251408 143.201577C29.970104 142.920273,29.588573 142.762237,29.190748 142.762237C28.792924 142.762237,28.411393 142.920273,28.130088 143.201577C27.848784 143.482882,27.690748 143.864413,27.690748 144.262237C27.690748 144.660062,27.848784 145.041593,28.130088 145.322898C28.411393 145.604202,28.792924 145.762237,29.190748 145.762237C29.588573 145.762237,29.970104 145.604202,30.251408 145.322898C30.532713 145.041593,30.690748 144.660062,30.690748 144.262237Z" style="fill: rgb(0.000000%,0.000000%,80.000000%);stroke: none;"></path>
  <path d="M30.690748 144.262237C30.690748 143.864413,30.532713 143.482882,30.251408 143.201577C29.970104 142.920273,29.588573 142.762237,29.190748 142.762237C28.792924 142.762237,28.411393 142.920273,28.130088 143.201577C27.848784 143.482882,27.690748 143.864413,27.690748 144.262237C27.690748 144.660062,27.848784 145.041593,28.130088 145.322898C28.411393 145.604202,28.792924 145.762237,29.190748 145.762237C29.588573 145.762237,29.970104 145.604202,30.251408 145.322898C30.532713 145.041593,30.690748 144.660062,30.690748 144.262237Z" style="stroke:rgb(0.000000%,0.000000%,0.000000%); stroke-width: 0.500000;stroke-linecap: round;stroke-linejoin: round;stroke-miterlimit: 10.000000;fill: none;"></path>
  <path d="M33.669920 139.966115C33.669920 139.568291,33.511885 139.186760,33.230580 138.905455C32.949276 138.624151,32.567745 138.466115,32.169920 138.466115C31.772095 138.466115,31.390564 138.624151,31.109260 138.905455C30.827955 139.186760,30.669920 139.568291,30.669920 139.966115C30.669920 140.363940,30.827955 140.745471,31.109260 141.026776C31.390564 141.308080,31.772095 141.466115,32.169920 141.466115C32.567745 141.466115,32.949276 141.308080,33.230580 141.026776C33.511885 140.745471,33.669920 140.363940,33.669920 139.966115Z" style="fill: rgb(0.000000%,0.000000%,80.000000%);stroke: none;"></path>
  <path d="M33.669920 139.966115C33.669920 139.568291,33.511885 139.186760,33.230580 138.905455C32.949276 138.624151,32.567745 138.466115,32.169920 138.466115C31.772095 138.466115,31.390564 138.624151,31.109260 138.905455C30.827955 139.186760,30.669920 139.568291,30.669920 139.966115C30.669920 140.363940,30.827955 140.745471,31.109260 141.026776C31.390564 141.308080,31.772095 141.466115,32.169920 141.466115C32.567745 141.466115,32.949276 141.308080,33.230580 141.026776C33.511885 140.745471,33.669920 140.363940,33.669920 139.966115Z" style="stroke:rgb(0.000000%,0.000000%,0.000000%); stroke-width: 0.500000;stroke-linecap: round;stroke-linejoin: round;stroke-miterlimit: 10.000000;fill: none;"></path>
  <path d="M38.438739 143.448088C38.438739 143.050263,38.280704 142.668732,37.999399 142.387427C37.718095 142.106123,37.336564 141.948088,36.938739 141.948088C36.540914 141.948088,36.159383 142.106123,35.878079 142.387427C35.596774 142.668732,35.438739 143.050263,35.438739 143.448088C35.438739 143.845912,35.596774 144.227443,35.878079 144.508748C36.159383 144.790052,36.540914 144.948088,36.938739 144.948088C37.336564 144.948088,37.718095 144.790052,37.999399 144.508748C38.280704 144.227443,38.438739 143.845912,38.438739 143.448088Z" style="fill: rgb(0.000000%,0.000000%,80.000000%);stroke: none;"></path>
  <path d="M38.438739 143.448088C38.438739 143.050263,38.280704 142.668732,37.999399 142.387427C37.718095 142.106123,37.336564 141.948088,36.938739 141.948088C36.540914 141.948088,36.159383 142.106123,35.878079 142.387427C35.596774 142.668732,35.438739 143.050263,35.438739 143.448088C35.438739 143.845912,35.596774 144.227443,35.878079 144.508748C36.159383 144.790052,36.540914 144.948088,36.938739 144.948088C37.336564 144.948088,37.718095 144.790052,37.999399 144.508748C38.280704 144.227443,38.438739 143.845912,38.438739 143.448088Z" style="stroke:rgb(0.000000%,0.000000%,0.000000%); stroke-width: 0.500000;stroke-linecap: round;stroke-linejoin: round;stroke-miterlimit: 10.000000;fill: none;"></path>
  <path d="M39.003903 140.844450C39.003903 140.446625,38.845868 140.065094,38.564563 139.783790C38.283259 139.502485,37.901728 139.344450,37.503903 139.344450C37.106078 139.344450,36.724547 139.502485,36.443243 139.783790C36.161938 140.065094,36.003903 140.446625,36.003903 140.844450C36.003903 141.242275,36.161938 141.623806,36.443243 141.905110C36.724547 142.186415,37.106078 142.344450,37.503903 142.344450C37.901728 142.344450,38.283259 142.186415,38.564563 141.905110C38.845868 141.623806,39.003903 141.242275,39.003903 140.844450Z" style="fill: rgb(0.000000%,0.000000%,80.000000%);stroke: none;"></path>
  <path d="M39.003903 140.844450C39.003903 140.446625,38.845868 140.065094,38.564563 139.783790C38.283259 139.502485,37.901728 139.344450,37.503903 139.344450C37.106078 139.344450,36.724547 139.502485,36.443243 139.783790C36.161938 140.065094,36.003903 140.446625,36.003903 140.844450C36.003903 141.242275,36.161938 141.623806,36.443243 141.905110C36.724547 142.186415,37.106078 142.344450,37.503903 142.344450C37.901728 142.344450,38.283259 142.186415,38.564563 141.905110C38.845868 141.623806,39.003903 141.242275,39.003903 140.844450Z" style="stroke:rgb(0.000000%,0.000000%,0.000000%); stroke-width: 0.500000;stroke-linecap: round;stroke-linejoin: round;stroke-miterlimit: 10.000000;fill: none;"></path>
  <path d="M35.438802 138.368379C35.438802 137.970554,35.280766 137.589023,34.999462 137.307719C34.718157 137.026414,34.336626 136.868379,33.938802 136.868379C33.540977 136.868379,33.159446 137.026414,32.878141 137.307719C32.596837 137.589023,32.438802 137.970554,32.438802 138.368379C32.438802 138.766204,32.596837 139.147735,32.878141 139.429039C33.159446 139.710344,33.540977 139.868379,33.938802 139.868379C34.336626 139.868379,34.718157 139.710344,34.999462 139.429039C35.280766 139.147735,35.438802 138.766204,35.438802 138.368379Z" style="fill: rgb(0.000000%,0.000000%,80.000000%);stroke: none;"></path>
  <path d="M35.438802 138.368379C35.438802 137.970554,35.280766 137.589023,34.999462 137.307719C34.718157 137.026414,34.336626 136.868379,33.938802 136.868379C33.540977 136.868379,33.159446 137.026414,32.878141 137.307719C32.596837 137.589023,32.438802 137.970554,32.438802 138.368379C32.438802 138.766204,32.596837 139.147735,32.878141 139.429039C33.159446 139.710344,33.540977 139.868379,33.938802 139.868379C34.336626 139.868379,34.718157 139.710344,34.999462 139.429039C35.280766 139.147735,35.438802 138.766204,35.438802 138.368379Z" style="stroke:rgb(0.000000%,0.000000%,0.000000%); stroke-width: 0.500000;stroke-linecap: round;stroke-linejoin: round;stroke-miterlimit: 10.000000;fill: none;"></path>
  <path d="M36.014005 138.976220C36.014005 138.578395,35.855970 138.196865,35.574665 137.915560C35.293361 137.634255,34.911830 137.476220,34.514005 137.476220C34.116180 137.476220,33.734649 137.634255,33.453345 137.915560C33.172040 138.196865,33.014005 138.578395,33.014005 138.976220C33.014005 139.374045,33.172040 139.755576,33.453345 140.036880C33.734649 140.318185,34.116180 140.476220,34.514005 140.476220C34.911830 140.476220,35.293361 140.318185,35.574665 140.036880C35.855970 139.755576,36.014005 139.374045,36.014005 138.976220Z" style="fill: rgb(0.000000%,0.000000%,80.000000%);stroke: none;"></path>
  <path d="M36.014005 138.976220C36.014005 138.578395,35.855970 138.196865,35.574665 137.915560C35.293361 137.634255,34.911830 137.476220,34.514005 137.476220C34.116180 137.476220,33.734649 137.634255,33.453345 137.915560C33.172040 138.196865,33.014005 138.578395,33.014005 138.976220C33.014005 139.374045,33.172040 139.755576,33.453345 140.036880C33.734649 140.318185,34.116180 140.476220,34.514005 140.476220C34.911830 140.476220,35.293361 140.318185,35.574665 140.036880C35.855970 139.755576,36.014005 139.374045,36.014005 138.976220Z" style="stroke:rgb(0.000000%,0.000000%,0.000000%); stroke-width: 0.500000;stroke-linecap: round;stroke-linejoin: round;stroke-miterlimit: 10.000000;fill: none;"></path>
  <path d="M38.373948 139.942875C38.373948 139.545051,38.215913 139.163520,37.934608 138.882215C37.653304 138.600911,37.271773 138.442875,36.873948 138.442875C36.476123 138.442875,36.094593 138.600911,35.813288 138.882215C35.531983 139.163520,35.373948 139.545051,35.373948 139.942875C35.373948 140.340700,35.531983 140.722231,35.813288 141.003536C36.094593 141.284840,36.476123 141.442875,36.873948 141.442875C37.271773 141.442875,37.653304 141.284840,37.934608 141.003536C38.215913 140.722231,38.373948 140.340700,38.373948 139.942875Z" style="fill: rgb(0.000000%,0.000000%,80.000000%);stroke: none;"></path>
  <path d="M38.373948 139.942875C38.373948 139.545051,38.215913 139.163520,37.934608 138.882215C37.653304 138.600911,37.271773 138.442875,36.873948 138.442875C36.476123 138.442875,36.094593 138.600911,35.813288 138.882215C35.531983 139.163520,35.373948 139.545051,35.373948 139.942875C35.373948 140.340700,35.531983 140.722231,35.813288 141.003536C36.094593 141.284840,36.476123 141.442875,36.873948 141.442875C37.271773 141.442875,37.653304 141.284840,37.934608 141.003536C38.215913 140.722231,38.373948 140.340700,38.373948 139.942875Z" style="stroke:rgb(0.000000%,0.000000%,0.000000%); stroke-width: 0.500000;stroke-linecap: round;stroke-linejoin: round;stroke-miterlimit: 10.000000;fill: none;"></path>
  <path d="M39.616074 148.917967C39.616074 148.520142,39.458039 148.138612,39.176735 147.857307C38.895430 147.576002,38.513899 147.417967,38.116074 147.417967C37.718250 147.417967,37.336719 147.576002,37.055414 147.857307C36.774110 148.138612,36.616074 148.520142,36.616074 148.917967C36.616074 149.315792,36.774110 149.697323,37.055414 149.978627C37.336719 150.259932,37.718250 150.417967,38.116074 150.417967C38.513899 150.417967,38.895430 150.259932,39.176735 149.978627C39.458039 149.697323,39.616074 149.315792,39.616074 148.917967Z" style="fill: rgb(0.000000%,0.000000%,80.000000%);stroke: none;"></path>
  <path d="M39.616074 148.917967C39.616074 148.520142,39.458039 148.138612,39.176735 147.857307C38.895430 147.576002,38.513899 147.417967,38.116074 147.417967C37.718250 147.417967,37.336719 147.576002,37.055414 147.857307C36.774110 148.138612,36.616074 148.520142,36.616074 148.917967C36.616074 149.315792,36.774110 149.697323,37.055414 149.978627C37.336719 150.259932,37.718250 150.417967,38.116074 150.417967C38.513899 150.417967,38.895430 150.259932,39.176735 149.978627C39.458039 149.697323,39.616074 149.315792,39.616074 148.917967Z" style="stroke:rgb(0.000000%,0.000000%,0.000000%); stroke-width: 0.500000;stroke-linecap: round;stroke-linejoin: round;stroke-miterlimit: 10.000000;fill: none;"></path>
  <path d="M32.763792 140.570984C32.763792 140.173160,32.605756 139.791629,32.324452 139.510324C32.043147 139.229020,31.661616 139.070984,31.263792 139.070984C30.865967 139.070984,30.484436 139.229020,30.203131 139.510324C29.921827 139.791629,29.763792 140.173160,29.763792 140.570984C29.763792 140.968809,29.921827 141.350340,30.203131 141.631645C30.484436 141.912949,30.865967 142.070984,31.263792 142.070984C31.661616 142.070984,32.043147 141.912949,32.324452 141.631645C32.605756 141.350340,32.763792 140.968809,32.763792 140.570984Z" style="fill: rgb(0.000000%,0.000000%,80.000000%);stroke: none;"></path>
  <path d="M32.763792 140.570984C32.763792 140.173160,32.605756 139.791629,32.324452 139.510324C32.043147 139.229020,31.661616 139.070984,31.263792 139.070984C30.865967 139.070984,30.484436 139.229020,30.203131 139.510324C29.921827 139.791629,29.763792 140.173160,29.763792 140.570984C29.763792 140.968809,29.921827 141.350340,30.203131 141.631645C30.484436 141.912949,30.865967 142.070984,31.263792 142.070984C31.661616 142.070984,32.043147 141.912949,32.324452 141.631645C32.605756 141.350340,32.763792 140.968809,32.763792 140.570984Z" style="stroke:rgb(0.000000%,0.000000%,0.000000%); stroke-width: 0.500000;stroke-linecap: round;stroke-linejoin: round;stroke-miterlimit: 10.000000;fill: none;"></path>
  <path d="M37.296605 149.574417C37.296605 149.176592,37.138570 148.795061,36.857265 148.513756C36.575960 148.232452,36.194430 148.074417,35.796605 148.074417C35.398780 148.074417,35.017249 148.232452,34.735945 148.513756C34.454640 148.795061,34.296605 149.176592,34.296605 149.574417C34.296605 149.972241,34.454640 150.353772,34.735945 150.635077C35.017249 150.916381,35.398780 151.074417,35.796605 151.074417C36.194430 151.074417,36.575960 150.916381,36.857265 150.635077C37.138570 150.353772,37.296605 149.972241,37.296605 149.574417Z" style="fill: rgb(0.000000%,0.000000%,80.000000%);stroke: none;"></path>
  <path d="M37.296605 149.574417C37.296605 149.176592,37.138570 148.795061,36.857265 148.513756C36.575960 148.232452,36.194430 148.074417,35.796605 148.074417C35.398780 148.074417,35.017249 148.232452,34.735945 148.513756C34.454640 148.795061,34.296605 149.176592,34.296605 149.574417C34.296605 149.972241,34.454640 150.353772,34.735945 150.635077C35.017249 150.916381,35.398780 151.074417,35.796605 151.074417C36.194430 151.074417,36.575960 150.916381,36.857265 150.635077C37.138570 150.353772,37.296605 149.972241,37.296605 149.574417Z" style="stroke:rgb(0.000000%,0.000000%,0.000000%); stroke-width: 0.500000;stroke-linecap: round;stroke-linejoin: round;stroke-miterlimit: 10.000000;fill: none;"></path>
  <path d="M34.013155 145.495445C34.013155 145.097621,33.855120 144.716090,33.573815 144.434785C33.292511 144.153481,32.910980 143.995445,32.513155 143.995445C32.115330 143.995445,31.733799 144.153481,31.452495 144.434785C31.171190 144.716090,31.013155 145.097621,31.013155 145.495445C31.013155 145.893270,31.171190 146.274801,31.452495 146.556105C31.733799 146.837410,32.115330 146.995445,32.513155 146.995445C32.910980 146.995445,33.292511 146.837410,33.573815 146.556105C33.855120 146.274801,34.013155 145.893270,34.013155 145.495445Z" style="fill: rgb(0.000000%,0.000000%,80.000000%);stroke: none;"></path>
  <path d="M34.013155 145.495445C34.013155 145.097621,33.855120 144.716090,33.573815 144.434785C33.292511 144.153481,32.910980 143.995445,32.513155 143.995445C32.115330 143.995445,31.733799 144.153481,31.452495 144.434785C31.171190 144.716090,31.013155 145.097621,31.013155 145.495445C31.013155 145.893270,31.171190 146.274801,31.452495 146.556105C31.733799 146.837410,32.115330 146.995445,32.513155 146.995445C32.910980 146.995445,33.292511 146.837410,33.573815 146.556105C33.855120 146.274801,34.013155 145.893270,34.013155 145.495445Z" style="stroke:rgb(0.000000%,0.000000%,0.000000%); stroke-width: 0.500000;stroke-linecap: round;stroke-linejoin: round;stroke-miterlimit: 10.000000;fill: none;"></path>
  <path d="M39.996276 145.124575C39.996276 144.726750,39.838240 144.345219,39.556936 144.063915C39.275631 143.782610,38.894100 143.624575,38.496276 143.624575C38.098451 143.624575,37.716920 143.782610,37.435615 144.063915C37.154311 144.345219,36.996276 144.726750,36.996276 145.124575C36.996276 145.522399,37.154311 145.903930,37.435615 146.185235C37.716920 146.466540,38.098451 146.624575,38.496276 146.624575C38.894100 146.624575,39.275631 146.466540,39.556936 146.185235C39.838240 145.903930,39.996276 145.522399,39.996276 145.124575Z" style="fill: rgb(0.000000%,0.000000%,80.000000%);stroke: none;"></path>
  <path d="M39.996276 145.124575C39.996276 144.726750,39.838240 144.345219,39.556936 144.063915C39.275631 143.782610,38.894100 143.624575,38.496276 143.624575C38.098451 143.624575,37.716920 143.782610,37.435615 144.063915C37.154311 144.345219,36.996276 144.726750,36.996276 145.124575C36.996276 145.522399,37.154311 145.903930,37.435615 146.185235C37.716920 146.466540,38.098451 146.624575,38.496276 146.624575C38.894100 146.624575,39.275631 146.466540,39.556936 146.185235C39.838240 145.903930,39.996276 145.522399,39.996276 145.124575Z" style="stroke:rgb(0.000000%,0.000000%,0.000000%); stroke-width: 0.500000;stroke-linecap: round;stroke-linejoin: round;stroke-miterlimit: 10.000000;fill: none;"></path>
  <path d="M204.000000 156.000000C204.000000 143.269608,198.942872 131.060621,189.941126 122.058874C180.939379 113.057128,168.730392 108.000000,156.000000 108.000000C143.269608 108.000000,131.060621 113.057128,122.058874 122.058874C113.057128 131.060621,108.000000 143.269608,108.000000 156.000000C108.000000 168.730392,113.057128 180.939379,122.058874 189.941126C131.060621 198.942872,143.269608 204.000000,156.000000 204.000000C168.730392 204.000000,180.939379 198.942872,189.941126 189.941126C198.942872 180.939379,204.000000 168.730392,204.000000 156.000000Z" style="fill: rgb(100.000000%,100.000000%,100.000000%);stroke: none;"></path>
  <path d="M204.000000 156.000000C204.000000 143.269608,198.942872 131.060621,189.941126 122.058874C180.939379 113.057128,168.730392 108.000000,156.000000 108.000000C143.269608 108.000000,131.060621 113.057128,122.058874 122.058874C113.057128 131.060621,108.000000 143.269608,108.000000 156.000000C108.000000 168.730392,113.057128 180.939379,122.058874 189.941126C131.060621 198.942872,143.269608 204.000000,156.000000 204.000000C168.730392 204.000000,180.939379 198.942872,189.941126 189.941126C198.942872 180.939379,204.000000 168.730392,204.000000 156.000000Z" style="stroke:rgb(0.000000%,0.000000%,0.000000%); stroke-width: 0.500000;stroke-linecap: round;stroke-linejoin: round;stroke-miterlimit: 10.000000;fill: none;"></path>
  <path d="M192.000000 156.000000C192.000000 146.452206,188.207154 137.295465,181.455844 130.544156C174.704535 123.792846,165.547794 120.000000,156.000000 120.000000C146.452206 120.000000,137.295465 123.792846,130.544156 130.544156C123.792846 137.295465,120.000000 146.452206,120.000000 156.000000C120.000000 165.547794,123.792846 174.704535,130.544156 181.455844C137.295465 188.207154,146.452206 192.000000,156.000000 192.000000C165.547794 192.000000,174.704535 188.207154,181.455844 181.455844C188.207154 174.704535,192.000000 165.547794,192.000000 156.000000Z" style="fill: rgb(70.000000%,80.000000%,90.000000%);stroke: none;"></path>
  <path d="M192.000000 156.000000C192.000000 146.452206,188.207154 137.295465,181.455844 130.544156C174.704535 123.792846,165.547794 120.000000,156.000000 120.000000C146.452206 120.000000,137.295465 123.792846,130.544156 130.544156C123.792846 137.295465,120.000000 146.452206,120.000000 156.000000C120.000000 165.547794,123.792846 174.704535,130.544156 181.455844C137.295465 188.207154,146.452206 192.000000,156.000000 192.000000C165.547794 192.000000,174.704535 188.207154,181.455844 181.455844C188.207154 174.704535,192.000000 165.547794,192.000000 156.000000Z" style="stroke:rgb(0.000000%,0.000000%,0.000000%); stroke-width: 0.500000;stroke-linecap: round;stroke-linejoin: round;stroke-miterlimit: 10.000000;fill: none;"></path>
  <path d="M180.000000 156.000000C180.000000 149.634804,177.471436 143.530310,172.970563 139.029437C168.469690 134.528564,162.365196 132.000000,156.000000 132.000000C149.634804 132.000000,143.530310 134.528564,139.029437 139.029437C134.528564 143.530310,132.000000 149.634804,132.000000 156.000000C132.000000 162.365196,134.528564 168.469690,139.029437 172.970563C143.530310 177.471436,149.634804 180.000000,156.000000 180.000000C162.365196 180.000000,168.469690 177.471436,172.970563 172.970563C177.471436 168.469690,180.000000 162.365196,180.000000 156.000000Z" style="fill: rgb(100.000000%,100.000000%,100.000000%);stroke: none;"></path>
  <path d="M180.000000 156.000000C180.000000 149.634804,177.471436 143.530310,172.970563 139.029437C168.469690 134.528564,162.365196 132.000000,156.000000 132.000000C149.634804 132.000000,143.530310 134.528564,139.029437 139.029437C134.528564 143.530310,132.000000 149.634804,132.000000 156.000000C132.000000 162.365196,134.528564 168.469690,139.029437 172.970563C143.530310 177.471436,149.634804 180.000000,156.000000 180.000000C162.365196 180.000000,168.469690 177.471436,172.970563 172.970563C177.471436 168.469690,180.000000 162.365196,180.000000 156.000000Z" style="stroke:rgb(0.000000%,0.000000%,0.000000%); stroke-width: 0.500000;stroke-linecap: round;stroke-linejoin: round;stroke-miterlimit: 10.000000;fill: none;"></path>
  <path d="M168.000000 156.000000C168.000000 152.817402,166.735718 149.765155,164.485281 147.514719C162.234845 145.264282,159.182598 144.000000,156.000000 144.000000C152.817402 144.000000,149.765155 145.264282,147.514719 147.514719C145.264282 149.765155,144.000000 152.817402,144.000000 156.000000C144.000000 159.182598,145.264282 162.234845,147.514719 164.485281C149.765155 166.735718,152.817402 168.000000,156.000000 168.000000C159.182598 168.000000,162.234845 166.735718,164.485281 164.485281C166.735718 162.234845,168.000000 159.182598,168.000000 156.000000Z" style="fill: rgb(60.000000%,30.000000%,30.000000%);stroke: none;"></path>
  <path d="M168.000000 156.000000C168.000000 152.817402,166.735718 149.765155,164.485281 147.514719C162.234845 145.264282,159.182598 144.000000,156.000000 144.000000C152.817402 144.000000,149.765155 145.264282,147.514719 147.514719C145.264282 149.765155,144.000000 152.817402,144.000000 156.000000C144.000000 159.182598,145.264282 162.234845,147.514719 164.485281C149.765155 166.735718,152.817402 168.000000,156.000000 168.000000C159.182598 168.000000,162.234845 166.735718,164.485281 164.485281C166.735718 162.234845,168.000000 159.182598,168.000000 156.000000Z" style="stroke:rgb(0.000000%,0.000000%,0.000000%); stroke-width: 0.500000;stroke-linecap: round;stroke-linejoin: round;stroke-miterlimit: 10.000000;fill: none;"></path>
  <path d="M168.276364 164.433635C168.276364 164.035810,168.118328 163.654280,167.837024 163.372975C167.555719 163.091670,167.174188 162.933635,166.776364 162.933635C166.378539 162.933635,165.997008 163.091670,165.715704 163.372975C165.434399 163.654280,165.276364 164.035810,165.276364 164.433635C165.276364 164.831460,165.434399 165.212991,165.715704 165.494295C165.997008 165.775600,166.378539 165.933635,166.776364 165.933635C167.174188 165.933635,167.555719 165.775600,167.837024 165.494295C168.118328 165.212991,168.276364 164.831460,168.276364 164.433635Z" style="fill: rgb(0.000000%,0.000000%,80.000000%);stroke: none;"></path>
  <path d="M168.276364 164.433635C168.276364 164.035810,168.118328 163.654280,167.837024 163.372975C167.555719 163.091670,167.174188 162.933635,166.776364 162.933635C166.378539 162.933635,165.997008 163.091670,165.715704 163.372975C165.434399 163.654280,165.276364 164.035810,165.276364 164.433635C165.276364 164.831460,165.434399 165.212991,165.715704 165.494295C165.997008 165.775600,166.378539 165.933635,166.776364 165.933635C167.174188 165.933635,167.555719 165.775600,167.837024 165.494295C168.118328 165.212991,168.276364 164.831460,168.276364 164.433635Z" style="stroke:rgb(0.000000%,0.000000%,0.000000%); stroke-width: 0.500000;stroke-linecap: round;stroke-linejoin: round;stroke-miterlimit: 10.000000;fill: none;"></path>
  <path d="M189.824739 162.818150C189.824739 162.420325,189.666704 162.038794,189.385399 161.757490C189.104095 161.476185,188.722564 161.318150,188.324739 161.318150C187.926914 161.318150,187.545383 161.476185,187.264079 161.757490C186.982774 162.038794,186.824739 162.420325,186.824739 162.818150C186.824739 163.215975,186.982774 163.597506,187.264079 163.878810C187.545383 164.160115,187.926914 164.318150,188.324739 164.318150C188.722564 164.318150,189.104095 164.160115,189.385399 163.878810C189.666704 163.597506,189.824739 163.215975,189.824739 162.818150Z" style="fill: rgb(0.000000%,0.000000%,80.000000%);stroke: none;"></path>
  <path d="M189.824739 162.818150C189.824739 162.420325,189.666704 162.038794,189.385399 161.757490C189.104095 161.476185,188.722564 161.318150,188.324739 161.318150C187.926914 161.318150,187.545383 161.476185,187.264079 161.757490C186.982774 162.038794,186.824739 162.420325,186.824739 162.818150C186.824739 163.215975,186.982774 163.597506,187.264079 163.878810C187.545383 164.160115,187.926914 164.318150,188.324739 164.318150C188.722564 164.318150,189.104095 164.160115,189.385399 163.878810C189.666704 163.597506,189.824739 163.215975,189.824739 162.818150Z" style="stroke:rgb(0.000000%,0.000000%,0.000000%); stroke-width: 0.500000;stroke-linecap: round;stroke-linejoin: round;stroke-miterlimit: 10.000000;fill: none;"></path>
  <path d="M169.222015 158.754747C169.222015 158.356922,169.063980 157.975391,168.782675 157.694087C168.501371 157.412782,168.119840 157.254747,167.722015 157.254747C167.324190 157.254747,166.942659 157.412782,166.661355 157.694087C166.380050 157.975391,166.222015 158.356922,166.222015 158.754747C166.222015 159.152572,166.380050 159.534102,166.661355 159.815407C166.942659 160.096712,167.324190 160.254747,167.722015 160.254747C168.119840 160.254747,168.501371 160.096712,168.782675 159.815407C169.063980 159.534102,169.222015 159.152572,169.222015 158.754747Z" style="fill: rgb(0.000000%,0.000000%,80.000000%);stroke: none;"></path>
  <path d="M169.222015 158.754747C169.222015 158.356922,169.063980 157.975391,168.782675 157.694087C168.501371 157.412782,168.119840 157.254747,167.722015 157.254747C167.324190 157.254747,166.942659 157.412782,166.661355 157.694087C166.380050 157.975391,166.222015 158.356922,166.222015 158.754747C166.222015 159.152572,166.380050 159.534102,166.661355 159.815407C166.942659 160.096712,167.324190 160.254747,167.722015 160.254747C168.119840 160.254747,168.501371 160.096712,168.782675 159.815407C169.063980 159.534102,169.222015 159.152572,169.222015 158.754747Z" style="stroke:rgb(0.000000%,0.000000%,0.000000%); stroke-width: 0.500000;stroke-linecap: round;stroke-linejoin: round;stroke-miterlimit: 10.000000;fill: none;"></path>
  <path d="M164.743382 162.262922C164.743382 161.865097,164.585347 161.483566,164.304042 161.202262C164.022738 160.920957,163.641207 160.762922,163.243382 160.762922C162.845558 160.762922,162.464027 160.920957,162.182722 161.202262C161.901418 161.483566,161.743382 161.865097,161.743382 162.262922C161.743382 162.660746,161.901418 163.042277,162.182722 163.323582C162.464027 163.604886,162.845558 163.762922,163.243382 163.762922C163.641207 163.762922,164.022738 163.604886,164.304042 163.323582C164.585347 163.042277,164.743382 162.660746,164.743382 162.262922Z" style="fill: rgb(0.000000%,0.000000%,80.000000%);stroke: none;"></path>
  <path d="M164.743382 162.262922C164.743382 161.865097,164.585347 161.483566,164.304042 161.202262C164.022738 160.920957,163.641207 160.762922,163.243382 160.762922C162.845558 160.762922,162.464027 160.920957,162.182722 161.202262C161.901418 161.483566,161.743382 161.865097,161.743382 162.262922C161.743382 162.660746,161.901418 163.042277,162.182722 163.323582C162.464027 163.604886,162.845558 163.762922,163.243382 163.762922C163.641207 163.762922,164.022738 163.604886,164.304042 163.323582C164.585347 163.042277,164.743382 162.660746,164.743382 162.262922Z" style="stroke:rgb(0.000000%,0.000000%,0.000000%); stroke-width: 0.500000;stroke-linecap: round;stroke-linejoin: round;stroke-miterlimit: 10.000000;fill: none;"></path>
  <path d="M188.904778 192.731651C188.904778 192.333826,188.746742 191.952295,188.465438 191.670991C188.184133 191.389686,187.802602 191.231651,187.404778 191.231651C187.006953 191.231651,186.625422 191.389686,186.344118 191.670991C186.062813 191.952295,185.904778 192.333826,185.904778 192.731651C185.904778 193.129476,186.062813 193.511007,186.344118 193.792311C186.625422 194.073616,187.006953 194.231651,187.404778 194.231651C187.802602 194.231651,188.184133 194.073616,188.465438 193.792311C188.746742 193.511007,188.904778 193.129476,188.904778 192.731651Z" style="fill: rgb(0.000000%,0.000000%,80.000000%);stroke: none;"></path>
  <path d="M188.904778 192.731651C188.904778 192.333826,188.746742 191.952295,188.465438 191.670991C188.184133 191.389686,187.802602 191.231651,187.404778 191.231651C187.006953 191.231651,186.625422 191.389686,186.344118 191.670991C186.062813 191.952295,185.904778 192.333826,185.904778 192.731651C185.904778 193.129476,186.062813 193.511007,186.344118 193.792311C186.625422 194.073616,187.006953 194.231651,187.404778 194.231651C187.802602 194.231651,188.184133 194.073616,188.465438 193.792311C188.746742 193.511007,188.904778 193.129476,188.904778 192.731651Z" style="stroke:rgb(0.000000%,0.000000%,0.000000%); stroke-width: 0.500000;stroke-linecap: round;stroke-linejoin: round;stroke-miterlimit: 10.000000;fill: none;"></path>
  <path d="M152.976759 178.015396C152.976759 177.617571,152.818724 177.236040,152.537419 176.954736C152.256114 176.673431,151.874584 176.515396,151.476759 176.515396C151.078934 176.515396,150.697403 176.673431,150.416099 176.954736C150.134794 177.236040,149.976759 177.617571,149.976759 178.015396C149.976759 178.413221,150.134794 178.794751,150.416099 179.076056C150.697403 179.357361,151.078934 179.515396,151.476759 179.515396C151.874584 179.515396,152.256114 179.357361,152.537419 179.076056C152.818724 178.794751,152.976759 178.413221,152.976759 178.015396Z" style="fill: rgb(0.000000%,0.000000%,80.000000%);stroke: none;"></path>
  <path d="M152.976759 178.015396C152.976759 177.617571,152.818724 177.236040,152.537419 176.954736C152.256114 176.673431,151.874584 176.515396,151.476759 176.515396C151.078934 176.515396,150.697403 176.673431,150.416099 176.954736C150.134794 177.236040,149.976759 177.617571,149.976759 178.015396C149.976759 178.413221,150.134794 178.794751,150.416099 179.076056C150.697403 179.357361,151.078934 179.515396,151.476759 179.515396C151.874584 179.515396,152.256114 179.357361,152.537419 179.076056C152.818724 178.794751,152.976759 178.413221,152.976759 178.015396Z" style="stroke:rgb(0.000000%,0.000000%,0.000000%); stroke-width: 0.500000;stroke-linecap: round;stroke-linejoin: round;stroke-miterlimit: 10.000000;fill: none;"></path>
  <path d="M161.771904 160.301605C161.771904 159.903780,161.613868 159.522249,161.332564 159.240945C161.051259 158.959640,160.669728 158.801605,160.271904 158.801605C159.874079 158.801605,159.492548 158.959640,159.211243 159.240945C158.929939 159.522249,158.771904 159.903780,158.771904 160.301605C158.771904 160.699430,158.929939 161.080961,159.211243 161.362265C159.492548 161.643570,159.874079 161.801605,160.271904 161.801605C160.669728 161.801605,161.051259 161.643570,161.332564 161.362265C161.613868 161.080961,161.771904 160.699430,161.771904 160.301605Z" style="fill: rgb(0.000000%,0.000000%,80.000000%);stroke: none;"></path>
  <path d="M161.771904 160.301605C161.771904 159.903780,161.613868 159.522249,161.332564 159.240945C161.051259 158.959640,160.669728 158.801605,160.271904 158.801605C159.874079 158.801605,159.492548 158.959640,159.211243 159.240945C158.929939 159.522249,158.771904 159.903780,158.771904 160.301605C158.771904 160.699430,158.929939 161.080961,159.211243 161.362265C159.492548 161.643570,159.874079 161.801605,160.271904 161.801605C160.669728 161.801605,161.051259 161.643570,161.332564 161.362265C161.613868 161.080961,161.771904 160.699430,161.771904 160.301605Z" style="stroke:rgb(0.000000%,0.000000%,0.000000%); stroke-width: 0.500000;stroke-linecap: round;stroke-linejoin: round;stroke-miterlimit: 10.000000;fill: none;"></path>
  <path d="M180.342388 154.829610C180.342388 154.431785,180.184353 154.050254,179.903048 153.768949C179.621744 153.487645,179.240213 153.329610,178.842388 153.329610C178.444563 153.329610,178.063032 153.487645,177.781728 153.768949C177.500423 154.050254,177.342388 154.431785,177.342388 154.829610C177.342388 155.227434,177.500423 155.608965,177.781728 155.890270C178.063032 156.171574,178.444563 156.329610,178.842388 156.329610C179.240213 156.329610,179.621744 156.171574,179.903048 155.890270C180.184353 155.608965,180.342388 155.227434,180.342388 154.829610Z" style="fill: rgb(0.000000%,0.000000%,80.000000%);stroke: none;"></path>
  <path d="M180.342388 154.829610C180.342388 154.431785,180.184353 154.050254,179.903048 153.768949C179.621744 153.487645,179.240213 153.329610,178.842388 153.329610C178.444563 153.329610,178.063032 153.487645,177.781728 153.768949C177.500423 154.050254,177.342388 154.431785,177.342388 154.829610C177.342388 155.227434,177.500423 155.608965,177.781728 155.890270C178.063032 156.171574,178.444563 156.329610,178.842388 156.329610C179.240213 156.329610,179.621744 156.171574,179.903048 155.890270C180.184353 155.608965,180.342388 155.227434,180.342388 154.829610Z" style="stroke:rgb(0.000000%,0.000000%,0.000000%); stroke-width: 0.500000;stroke-linecap: round;stroke-linejoin: round;stroke-miterlimit: 10.000000;fill: none;"></path>
  <path d="M174.095466 152.101644C174.095466 151.703819,173.937431 151.322288,173.656127 151.040983C173.374822 150.759679,172.993291 150.601644,172.595466 150.601644C172.197642 150.601644,171.816111 150.759679,171.534806 151.040983C171.253502 151.322288,171.095466 151.703819,171.095466 152.101644C171.095466 152.499468,171.253502 152.880999,171.534806 153.162304C171.816111 153.443608,172.197642 153.601644,172.595466 153.601644C172.993291 153.601644,173.374822 153.443608,173.656127 153.162304C173.937431 152.880999,174.095466 152.499468,174.095466 152.101644Z" style="fill: rgb(0.000000%,0.000000%,80.000000%);stroke: none;"></path>
  <path d="M174.095466 152.101644C174.095466 151.703819,173.937431 151.322288,173.656127 151.040983C173.374822 150.759679,172.993291 150.601644,172.595466 150.601644C172.197642 150.601644,171.816111 150.759679,171.534806 151.040983C171.253502 151.322288,171.095466 151.703819,171.095466 152.101644C171.095466 152.499468,171.253502 152.880999,171.534806 153.162304C171.816111 153.443608,172.197642 153.601644,172.595466 153.601644C172.993291 153.601644,173.374822 153.443608,173.656127 153.162304C173.937431 152.880999,174.095466 152.499468,174.095466 152.101644Z" style="stroke:rgb(0.000000%,0.000000%,0.000000%); stroke-width: 0.500000;stroke-linecap: round;stroke-linejoin: round;stroke-miterlimit: 10.000000;fill: none;"></path>
  <path d="M164.005651 184.640496C164.005651 184.242671,163.847616 183.861141,163.566311 183.579836C163.285007 183.298531,162.903476 183.140496,162.505651 183.140496C162.107826 183.140496,161.726295 183.298531,161.444991 183.579836C161.163686 183.861141,161.005651 184.242671,161.005651 184.640496C161.005651 185.038321,161.163686 185.419852,161.444991 185.701156C161.726295 185.982461,162.107826 186.140496,162.505651 186.140496C162.903476 186.140496,163.285007 185.982461,163.566311 185.701156C163.847616 185.419852,164.005651 185.038321,164.005651 184.640496Z" style="fill: rgb(0.000000%,0.000000%,80.000000%);stroke: none;"></path>
  <path d="M164.005651 184.640496C164.005651 184.242671,163.847616 183.861141,163.566311 183.579836C163.285007 183.298531,162.903476 183.140496,162.505651 183.140496C162.107826 183.140496,161.726295 183.298531,161.444991 183.579836C161.163686 183.861141,161.005651 184.242671,161.005651 184.640496C161.005651 185.038321,161.163686 185.419852,161.444991 185.701156C161.726295 185.982461,162.107826 186.140496,162.505651 186.140496C162.903476 186.140496,163.285007 185.982461,163.566311 185.701156C163.847616 185.419852,164.005651 185.038321,164.005651 184.640496Z" style="stroke:rgb(0.000000%,0.000000%,0.000000%); stroke-width: 0.500000;stroke-linecap: round;stroke-linejoin: round;stroke-miterlimit: 10.000000;fill: none;"></path>
  <path d="M171.393591 155.237072C171.393591 154.839247,171.235556 154.457717,170.954251 154.176412C170.672946 153.895107,170.291416 153.737072,169.893591 153.737072C169.495766 153.737072,169.114235 153.895107,168.832931 154.176412C168.551626 154.457717,168.393591 154.839247,168.393591 155.237072C168.393591 155.634897,168.551626 156.016428,168.832931 156.297732C169.114235 156.579037,169.495766 156.737072,169.893591 156.737072C170.291416 156.737072,170.672946 156.579037,170.954251 156.297732C171.235556 156.016428,171.393591 155.634897,171.393591 155.237072Z" style="fill: rgb(0.000000%,0.000000%,80.000000%);stroke: none;"></path>
  <path d="M171.393591 155.237072C171.393591 154.839247,171.235556 154.457717,170.954251 154.176412C170.672946 153.895107,170.291416 153.737072,169.893591 153.737072C169.495766 153.737072,169.114235 153.895107,168.832931 154.176412C168.551626 154.457717,168.393591 154.839247,168.393591 155.237072C168.393591 155.634897,168.551626 156.016428,168.832931 156.297732C169.114235 156.579037,169.495766 156.737072,169.893591 156.737072C170.291416 156.737072,170.672946 156.579037,170.954251 156.297732C171.235556 156.016428,171.393591 155.634897,171.393591 155.237072Z" style="stroke:rgb(0.000000%,0.000000%,0.000000%); stroke-width: 0.500000;stroke-linecap: round;stroke-linejoin: round;stroke-miterlimit: 10.000000;fill: none;"></path>
  <path d="M176.689007 165.107441C176.689007 164.709617,176.530972 164.328086,176.249667 164.046781C175.968363 163.765477,175.586832 163.607441,175.189007 163.607441C174.791182 163.607441,174.409651 163.765477,174.128347 164.046781C173.847042 164.328086,173.689007 164.709617,173.689007 165.107441C173.689007 165.505266,173.847042 165.886797,174.128347 166.168102C174.409651 166.449406,174.791182 166.607441,175.189007 166.607441C175.586832 166.607441,175.968363 166.449406,176.249667 166.168102C176.530972 165.886797,176.689007 165.505266,176.689007 165.107441Z" style="fill: rgb(0.000000%,0.000000%,80.000000%);stroke: none;"></path>
  <path d="M176.689007 165.107441C176.689007 164.709617,176.530972 164.328086,176.249667 164.046781C175.968363 163.765477,175.586832 163.607441,175.189007 163.607441C174.791182 163.607441,174.409651 163.765477,174.128347 164.046781C173.847042 164.328086,173.689007 164.709617,173.689007 165.107441C173.689007 165.505266,173.847042 165.886797,174.128347 166.168102C174.409651 166.449406,174.791182 166.607441,175.189007 166.607441C175.586832 166.607441,175.968363 166.449406,176.249667 166.168102C176.530972 165.886797,176.689007 165.505266,176.689007 165.107441Z" style="stroke:rgb(0.000000%,0.000000%,0.000000%); stroke-width: 0.500000;stroke-linecap: round;stroke-linejoin: round;stroke-miterlimit: 10.000000;fill: none;"></path>
</svg>
